<?xml version="1.0" standalone="no"?><!DOCTYPE svg PUBLIC "-//W3C//DTD SVG 1.1//EN" "http://www.w3.org/Graphics/SVG/1.1/DTD/svg11.dtd"><svg t="1637755699245" class="icon" viewBox="0 0 1024 1024" version="1.1" xmlns="http://www.w3.org/2000/svg" p-id="5072" xmlns:xlink="http://www.w3.org/1999/xlink" width="64" height="64"><defs><style type="text/css"></style></defs><path d="M886.1 421.4h-51.8V318.2H731.2l-0.2-52.6c0-28.4-23-51.5-51.5-51.5-28.4 0-51.5 23-51.5 51.5v52.6H421.9v-51.8c0-28.5-23.1-51.6-51.6-51.6s-51.6 23.1-51.6 51.6v51.8H215.5v103.1l-52.6 0.1c-28.4 0-51.5 23-51.5 51.5 0 28.4 23 51.5 51.5 51.5h52.6v309.4l618-0.3 0.9-308.8h51.8c28.5 0 51.6-23.1 51.6-51.6-0.1-28.6-23.2-51.7-51.7-51.7z" fill="#303030" p-id="5073"></path><path d="M873.5 404.4h-46.8V301.2h-103l-0.1-47.6c0-31.2-25.3-56.5-56.5-56.5s-56.5 25.3-56.5 56.5v47.6H414.3v-46.8c0-31.3-25.3-56.6-56.6-56.6s-56.6 25.3-56.6 56.6v46.8H197.9v103.1l-47.6 0.1c-31.2 0-56.5 25.3-56.5 56.5s25.3 56.5 56.5 56.5h47.6v309.5l628-0.3 0.9-308.9h46.8c31.3 0 56.6-25.3 56.6-56.6s-25.3-56.7-56.7-56.7c0.1 0 0.1 0 0 0z m-366 412.4H207.9V620.4H301l0.1 46.6c0.4 31.3 26.1 56.3 57.4 55.9 30.7-0.4 55.4-25.2 55.9-55.9v-46.6h93.2v196.4z m0-206.4H404.3V667c0.4 25.7-20.2 46.9-45.9 47.3-25.7 0.4-46.9-20.2-47.3-45.9V667l-0.1-56.6H207.9v-103h-57.6c-25.7 0-46.5-20.8-46.5-46.5s20.8-46.5 46.5-46.5l57.6-0.2v-103h103.2v-56.8c0-25.7 20.9-46.6 46.6-46.6 25.7 0 46.6 20.9 46.6 46.6v56.8h103.2v103h56.7c25.7 0 46.5 20.8 46.5 46.5s-20.8 46.5-46.5 46.5h-56.7v103.2z m308.4 206.1l-298.4 0.3v-196h103.1v-56.6c0-25.7 20.8-46.5 46.5-46.5s46.5 20.8 46.5 46.5v56.7h103.1l-0.8 195.6z m57.6-308.8h-56.8v103.2h-93.1v-46.7c0-31.2-25.3-56.5-56.5-56.5s-56.5 25.3-56.5 56.5v46.7h-93.1v-93.5h46.7c31.2 0 56.5-25.3 56.5-56.5s-25.3-56.5-56.5-56.5h-46.7v-93.1h103.1v-57.6c0-25.7 20.8-46.5 46.5-46.5s46.5 20.8 46.5 46.5l0.2 57.6h103v103.2h56.8c25.7 0 46.6 20.9 46.6 46.6-0.1 25.7-21 46.6-46.7 46.6z" fill="#EDA545" p-id="5074"></path></svg>