<?xml version="1.0" standalone="no"?><!DOCTYPE svg PUBLIC "-//W3C//DTD SVG 1.1//EN" "http://www.w3.org/Graphics/SVG/1.1/DTD/svg11.dtd"><svg t="1637754017827" class="icon" viewBox="0 0 1024 1024" version="1.1" xmlns="http://www.w3.org/2000/svg" p-id="6512" xmlns:xlink="http://www.w3.org/1999/xlink" width="64" height="64"><defs><style type="text/css"></style></defs><path d="M928 170.666667H426.666667v512a85.426667 85.426667 0 0 1-85.333334 85.333333H213.333333a85.426667 85.426667 0 0 1-85.333333-85.333333V170.666667h-32a53.393333 53.393333 0 0 0-53.333333 53.333333v661.333333a53.393333 53.393333 0 0 0 53.333333 53.333334h832a53.393333 53.393333 0 0 0 53.333333-53.333334V224a53.393333 53.393333 0 0 0-53.333333-53.333333z m-394.666667 597.333333a21.333333 21.333333 0 0 1-21.333333-21.333333 21.333333 21.333333 0 0 1 21.333333-21.333334 21.333333 21.333333 0 0 1 21.333334 21.333334 21.333333 21.333333 0 0 1-21.333334 21.333333z m0-128a21.333333 21.333333 0 0 1-21.333333-21.333333 21.333333 21.333333 0 0 1 21.333333-21.333334 21.333333 21.333333 0 0 1 21.333334 21.333334 21.333333 21.333333 0 0 1-21.333334 21.333333z m0-128a21.333333 21.333333 0 0 1-21.333333-21.333333 21.333333 21.333333 0 0 1 21.333333-21.333334 21.333333 21.333333 0 0 1 21.333334 21.333334 21.333333 21.333333 0 0 1-21.333334 21.333333z m128 256a21.333333 21.333333 0 0 1-21.333333-21.333333 21.333333 21.333333 0 0 1 21.333333-21.333334 21.333333 21.333333 0 0 1 21.333334 21.333334 21.333333 21.333333 0 0 1-21.333334 21.333333z m0-128a21.333333 21.333333 0 0 1-21.333333-21.333333 21.333333 21.333333 0 0 1 21.333333-21.333334 21.333333 21.333333 0 0 1 21.333334 21.333334 21.333333 21.333333 0 0 1-21.333334 21.333333z m0-128a21.333333 21.333333 0 0 1-21.333333-21.333333 21.333333 21.333333 0 0 1 21.333333-21.333334 21.333333 21.333333 0 0 1 21.333334 21.333334 21.333333 21.333333 0 0 1-21.333334 21.333333z m128 256a21.333333 21.333333 0 0 1-21.333333-21.333333 21.333333 21.333333 0 0 1 21.333333-21.333334 21.333333 21.333333 0 0 1 21.333334 21.333334 21.333333 21.333333 0 0 1-21.333334 21.333333z m0-128a21.333333 21.333333 0 0 1-21.333333-21.333333 21.333333 21.333333 0 0 1 21.333333-21.333334 21.333333 21.333333 0 0 1 21.333334 21.333334 21.333333 21.333333 0 0 1-21.333334 21.333333z m0-128a21.333333 21.333333 0 0 1-21.333333-21.333333 21.333333 21.333333 0 0 1 21.333333-21.333334 21.333333 21.333333 0 0 1 21.333334 21.333334 21.333333 21.333333 0 0 1-21.333334 21.333333z m0-170.666667H533.333333a21.333333 21.333333 0 0 1-21.333333-21.333333 21.333333 21.333333 0 0 1 21.333333-21.333333h256a21.333333 21.333333 0 0 1 21.333334 21.333333 21.333333 21.333333 0 0 1-21.333334 21.333333z m-618.666666 341.333334V128a42.713333 42.713333 0 0 1 42.666666-42.666667h128a42.713333 42.713333 0 0 1 42.666667 42.666667v554.666667a42.713333 42.713333 0 0 1-42.666667 42.666666H213.333333a42.713333 42.713333 0 0 1-42.666666-42.666666z" fill="#2c2c2c" p-id="6513"></path></svg>