<?xml version="1.0" standalone="no"?><!DOCTYPE svg PUBLIC "-//W3C//DTD SVG 1.1//EN" "http://www.w3.org/Graphics/SVG/1.1/DTD/svg11.dtd"><svg t="1637755677210" class="icon" viewBox="0 0 1024 1024" version="1.1" xmlns="http://www.w3.org/2000/svg" p-id="4849" xmlns:xlink="http://www.w3.org/1999/xlink" width="64" height="64"><defs><style type="text/css"></style></defs><path d="M120.6 280.93l807.16 0 0 627.57-807.16 0 0-627.57Z" fill="#303030" p-id="4850"></path><path d="M887.72 255.93H651.53V153.54a23.07 23.07 0 0 0-23-23H375.87a23.07 23.07 0 0 0-23 23v102.39H116.64a23.07 23.07 0 0 0-23 23v591.53a23.07 23.07 0 0 0 23 23h771.08a23.07 23.07 0 0 0 23-23V279a23.07 23.07 0 0 0-23-23.07zM362.83 153.54a13.06 13.06 0 0 1 13-13h252.66a13.06 13.06 0 0 1 13 13v102.39H362.83z m537.93 716.92a13.06 13.06 0 0 1-13 13H116.64a13.06 13.06 0 0 1-13-13V508.09a60.43 60.43 0 0 0 50.36 27.2h317.57v17A16.75 16.75 0 0 0 488.31 569h27.75a16.75 16.75 0 0 0 16.74-16.74v-17h317.52a60.43 60.43 0 0 0 50.44-27.2zM481.57 552.31v-27.74a6.74 6.74 0 0 1 6.74-6.74h27.75a6.74 6.74 0 0 1 6.74 6.74v27.75a6.74 6.74 0 0 1-6.74 6.74h-27.75a6.74 6.74 0 0 1-6.74-6.75z m419.19-77.47a50.5 50.5 0 0 1-50.44 50.44H532.79v-0.72a16.75 16.75 0 0 0-16.74-16.74h-27.74a16.75 16.75 0 0 0-16.74 16.74v0.72H154a50.5 50.5 0 0 1-50.44-50.44V279a13.06 13.06 0 0 1 13-13h771.16a13.06 13.06 0 0 1 13 13z" fill="#EDA545" p-id="4851"></path></svg>